<svg xmlns="http://www.w3.org/2000/svg" width="1920" height="1080" viewBox="0 0 1920 1080">
  <defs>
    <linearGradient id="bg" x1="0%" y1="0%" x2="100%" y2="100%">
      <stop offset="0%" style="stop-color:#33414e;stop-opacity:1" />
      <stop offset="100%" style="stop-color:#46403f;stop-opacity:1" />
    </linearGradient>
  </defs>
  
  <rect width="1920" height="1080" fill="url(#bg)"/>
  
  <!-- Books pattern -->
  <g opacity="0.1">
    <g fill="white">
      <!-- Repeated book pattern across the background -->
      <g transform="translate(100,100)">
        <rect x="0" y="0" width="20" height="80" rx="2"/>
        <rect x="25" y="0" width="20" height="90" rx="2"/>
        <rect x="50" y="0" width="20" height="75" rx="2"/>
        <rect x="75" y="0" width="20" height="85" rx="2"/>
        <rect x="100" y="0" width="20" height="70" rx="2"/>
      </g>
      
      <g transform="translate(300,200)">
        <rect x="0" y="0" width="20" height="85" rx="2"/>
        <rect x="25" y="0" width="20" height="75" rx="2"/>
        <rect x="50" y="0" width="20" height="90" rx="2"/>
        <rect x="75" y="0" width="20" height="80" rx="2"/>
      </g>
      
      <g transform="translate(600,150)">
        <rect x="0" y="0" width="20" height="75" rx="2"/>
        <rect x="25" y="0" width="20" height="85" rx="2"/>
        <rect x="50" y="0" width="20" height="70" rx="2"/>
        <rect x="75" y="0" width="20" height="90" rx="2"/>
        <rect x="100" y="0" width="20" height="80" rx="2"/>
      </g>
      
      <g transform="translate(900,120)">
        <rect x="0" y="0" width="20" height="80" rx="2"/>
        <rect x="25" y="0" width="20" height="75" rx="2"/>
        <rect x="50" y="0" width="20" height="85" rx="2"/>
      </g>
      
      <g transform="translate(1200,180)">
        <rect x="0" y="0" width="20" height="90" rx="2"/>
        <rect x="25" y="0" width="20" height="70" rx="2"/>
        <rect x="50" y="0" width="20" height="80" rx="2"/>
        <rect x="75" y="0" width="20" height="85" rx="2"/>
      </g>
      
      <g transform="translate(1500,140)">
        <rect x="0" y="0" width="20" height="75" rx="2"/>
        <rect x="25" y="0" width="20" height="90" rx="2"/>
        <rect x="50" y="0" width="20" height="80" rx="2"/>
      </g>
    </g>
  </g>
  
  <!-- Overlay gradient -->
  <rect width="1920" height="1080" fill="url(#bg)" opacity="0.8"/>
</svg>